<?xml version="1.0" encoding="UTF-8" standalone="no"?>
<!DOCTYPE svg PUBLIC "-//W3C//DTD SVG 1.1//EN" "http://www.w3.org/Graphics/SVG/1.1/DTD/svg11.dtd">
<svg width="100%" height="100%" viewBox="0 0 651 478" version="1.1" xmlns="http://www.w3.org/2000/svg" xmlns:xlink="http://www.w3.org/1999/xlink" xml:space="preserve" xmlns:serif="http://www.serif.com/" style="fill-rule:evenodd;clip-rule:evenodd;stroke-linejoin:round;stroke-miterlimit:2;">
    <g transform="matrix(1,0,0,1,-274.943,-211.194)">
        <path d="M447.626,563.928C352.408,563.928 274.943,486.463 274.943,391.246C274.943,296.028 352.408,218.563 447.626,218.563C503.718,218.621 556.418,245.946 588.787,291.756L587.153,292.911C555.159,247.63 503.069,220.62 447.626,220.563C353.512,220.563 276.943,297.131 276.943,391.246C276.943,485.36 353.512,561.928 447.626,561.928C500.735,562.101 550.955,537.316 583.122,495.056L584.708,496.273C552.165,539.028 501.357,564.104 447.626,563.928Z" style="fill:rgb(203,213,225);fill-rule:nonzero;"/>
    </g>
    <g transform="matrix(1,0,0,1,-274.943,-211.194)">
        <path d="M519.016,362.328C513.764,362.328 509.444,358.007 509.444,352.756C509.444,347.505 513.764,343.184 519.016,343.184C524.267,343.184 528.588,347.505 528.588,352.756C528.588,358.007 524.267,362.328 519.016,362.328Z" style="fill:rgb(244,63,94);fill-rule:nonzero;"/>
    </g>
    <g transform="matrix(1,0,0,1,-274.943,-211.194)">
        <path d="M522.354,354.759L520.351,352.756L522.354,350.753C522.532,350.576 522.633,350.335 522.633,350.083C522.633,349.565 522.206,349.139 521.688,349.139C521.437,349.139 521.196,349.239 521.018,349.418L519.015,351.421L517.012,349.418C516.835,349.241 516.595,349.141 516.345,349.141C515.827,349.141 515.401,349.567 515.401,350.085C515.401,350.336 515.5,350.576 515.677,350.753L517.68,352.756L515.677,354.759C515.501,354.936 515.403,355.175 515.403,355.424C515.403,355.942 515.829,356.369 516.347,356.369C516.596,356.369 516.836,356.27 517.012,356.094L519.015,354.091L521.018,356.094C521.195,356.271 521.436,356.371 521.686,356.371C522.204,356.371 522.63,355.945 522.63,355.427C522.63,355.176 522.531,354.936 522.354,354.759Z" style="fill:white;fill-rule:nonzero;"/>
    </g>
    <circle cx="196.468" cy="19.049" r="19.049" style="fill:rgb(34,197,94);"/>
    <g transform="matrix(1,0,0,1,-274.943,-211.194)">
        <path d="M468.813,240.157C468.146,240.157 467.517,239.842 467.118,239.309L461.921,232.38C461.646,232.013 461.497,231.567 461.497,231.109C461.497,229.946 462.454,228.99 463.616,228.99C464.282,228.99 464.911,229.304 465.311,229.837L468.711,234.37L477.443,221.272C477.837,220.69 478.496,220.34 479.198,220.34C480.361,220.34 481.317,221.297 481.317,222.459C481.317,222.873 481.196,223.277 480.969,223.623L470.576,239.213C470.195,239.785 469.558,240.137 468.871,240.156L468.813,240.157Z" style="fill:white;fill-rule:nonzero;"/>
    </g>
    <path d="M224.862,58.484C224.862,55.686 222.59,53.414 219.792,53.414L173.985,53.414C171.187,53.414 168.915,55.686 168.915,58.484L168.915,60.308C168.915,63.106 171.187,65.378 173.985,65.378L219.792,65.378C222.59,65.378 224.862,63.106 224.862,60.308L224.862,58.484Z" style="fill:rgb(203,213,225);"/>
    <path d="M253.275,82.411C253.275,79.613 251.003,77.341 248.205,77.341L145.572,77.341C142.774,77.341 140.502,79.613 140.502,82.411L140.502,84.235C140.502,87.033 142.774,89.305 145.572,89.305L248.205,89.305C251.003,89.305 253.275,87.033 253.275,84.235L253.275,82.411Z" style="fill:rgb(203,213,225);"/>
    <path d="M253.275,106.338C253.275,103.54 251.003,101.268 248.205,101.268L145.572,101.268C142.774,101.268 140.502,103.54 140.502,106.338L140.502,108.162C140.502,110.96 142.774,113.232 145.572,113.232L248.205,113.232C251.003,113.232 253.275,110.96 253.275,108.162L253.275,106.338Z" style="fill:rgb(203,213,225);"/>
    <g transform="matrix(1,0,0,1,-274.943,-211.194)">
        <path d="M460.722,567.575C455.471,567.575 451.15,563.254 451.15,558.003C451.15,552.752 455.471,548.431 460.722,548.431C465.973,548.431 470.294,552.752 470.294,558.003C470.294,563.254 465.973,567.575 460.722,567.575Z" style="fill:rgb(244,63,94);fill-rule:nonzero;"/>
    </g>
    <g transform="matrix(1,0,0,1,-274.943,-211.194)">
        <path d="M464.06,560.006L462.057,558.003L464.06,556C464.237,555.823 464.337,555.583 464.337,555.333C464.337,554.815 463.911,554.389 463.393,554.389C463.142,554.389 462.902,554.488 462.725,554.665L460.722,556.668L458.719,554.665C458.542,554.488 458.302,554.389 458.051,554.389C457.533,554.389 457.107,554.815 457.107,555.333C457.107,555.583 457.207,555.823 457.384,556L459.387,558.003L457.384,560.006C457.207,560.183 457.107,560.424 457.107,560.674C457.107,561.192 457.533,561.618 458.051,561.618C458.302,561.618 458.542,561.519 458.719,561.342L460.722,559.339L462.725,561.342C462.902,561.519 463.142,561.618 463.393,561.618C463.911,561.618 464.337,561.192 464.337,560.674C464.337,560.424 464.237,560.183 464.06,560.006Z" style="fill:white;fill-rule:nonzero;"/>
    </g>
    <circle cx="138.175" cy="224.296" r="19.049" style="fill:rgb(34,197,94);"/>
    <g transform="matrix(1,0,0,1,-274.943,-211.194)">
        <path d="M410.519,445.404C409.853,445.404 409.224,445.09 408.824,444.557L403.627,437.627C403.352,437.261 403.204,436.814 403.204,436.356C403.204,435.194 404.16,434.237 405.322,434.237C405.989,434.237 406.618,434.552 407.018,435.085L410.418,439.618L419.15,426.519C419.541,425.924 420.208,425.564 420.921,425.564C422.083,425.564 423.04,426.521 423.04,427.683C423.04,428.106 422.913,428.52 422.676,428.87L412.282,444.461C411.901,445.032 411.265,445.384 410.578,445.404L410.519,445.404Z" style="fill:white;fill-rule:nonzero;"/>
    </g>
    <path d="M166.568,263.731C166.568,260.934 164.297,258.662 161.499,258.662L115.691,258.662C112.893,258.662 110.622,260.934 110.622,263.731L110.622,265.556C110.622,268.354 112.893,270.625 115.691,270.625L161.499,270.625C164.297,270.625 166.568,268.354 166.568,265.556L166.568,263.731Z" style="fill:rgb(203,213,225);"/>
    <path d="M194.982,287.658C194.982,284.86 192.71,282.589 189.912,282.589L87.278,282.589C84.48,282.589 82.209,284.86 82.209,287.658L82.209,289.483C82.209,292.281 84.48,294.552 87.278,294.552L189.912,294.552C192.71,294.552 194.982,292.281 194.982,289.483L194.982,287.658Z" style="fill:rgb(203,213,225);"/>
    <path d="M194.982,311.585C194.982,308.787 192.71,306.516 189.912,306.516L87.278,306.516C84.48,306.516 82.209,308.787 82.209,311.585L82.209,313.41C82.209,316.208 84.48,318.479 87.278,318.479L189.912,318.479C192.71,318.479 194.982,316.208 194.982,313.41L194.982,311.585Z" style="fill:rgb(203,213,225);"/>
    <g transform="matrix(1,0,0,1,-274.943,-211.194)">
        <path d="M658.733,526.736C651.481,526.736 645.515,520.769 645.515,513.517C645.515,506.266 651.481,500.299 658.733,500.299C665.984,500.299 671.951,506.266 671.951,513.517C671.951,520.769 665.984,526.736 658.733,526.736Z" style="fill:rgb(244,63,94);fill-rule:nonzero;"/>
    </g>
    <g transform="matrix(1,0,0,1,-274.943,-211.194)">
        <path d="M663.343,516.283L660.577,513.518L663.343,510.752C663.587,510.507 663.724,510.175 663.724,509.83C663.724,509.114 663.136,508.526 662.421,508.526C662.075,508.526 661.743,508.663 661.499,508.908L658.733,511.674L655.967,508.908C655.722,508.663 655.39,508.526 655.045,508.526C654.329,508.526 653.741,509.114 653.741,509.83C653.741,510.175 653.878,510.507 654.123,510.752L656.889,513.518L654.123,516.284C653.878,516.528 653.741,516.86 653.741,517.206C653.741,517.921 654.329,518.509 655.045,518.509C655.39,518.509 655.722,518.372 655.967,518.128L658.733,515.362L661.498,518.127C661.743,518.372 662.075,518.509 662.42,518.509C663.136,518.509 663.724,517.921 663.724,517.205C663.724,516.86 663.587,516.528 663.342,516.283L663.343,516.283Z" style="fill:white;fill-rule:nonzero;"/>
    </g>
    <circle cx="326.199" cy="133.144" r="26.305" style="fill:rgb(34,197,94);"/>
    <g transform="matrix(1,0,0,1,-274.943,-211.194)">
        <path d="M597.554,358.029C596.634,358.029 595.765,357.594 595.213,356.858L588.037,347.29C587.657,346.783 587.452,346.167 587.452,345.534C587.452,343.929 588.773,342.608 590.378,342.608C591.298,342.608 592.167,343.042 592.719,343.779L597.414,350.038L609.472,331.951C610.014,331.137 610.93,330.647 611.907,330.647C613.513,330.647 614.833,331.968 614.833,333.573C614.833,334.151 614.662,334.716 614.342,335.197L599.989,356.726C599.463,357.515 598.584,358.001 597.636,358.028C597.608,358.028 597.581,358.029 597.554,358.029Z" style="fill:white;fill-rule:nonzero;"/>
    </g>
    <path d="M365.408,185.67C365.408,182.872 363.137,180.6 360.339,180.6L293.221,180.6C290.423,180.6 288.152,182.872 288.152,185.67L288.152,192.051C288.152,194.849 290.423,197.121 293.221,197.121L360.339,197.121C363.137,197.121 365.408,194.849 365.408,192.051L365.408,185.67Z" style="fill:rgb(51,65,85);"/>
    <path d="M404.644,218.711C404.644,215.913 402.373,213.641 399.575,213.641L253.985,213.641C251.187,213.641 248.916,215.913 248.916,218.711L248.916,225.092C248.916,227.89 251.187,230.162 253.985,230.162L399.575,230.162C402.373,230.162 404.644,227.89 404.644,225.092L404.644,218.711Z" style="fill:rgb(51,65,85);"/>
    <path d="M404.644,251.751C404.644,248.954 402.373,246.682 399.575,246.682L253.985,246.682C251.187,246.682 248.916,248.954 248.916,251.751L248.916,258.133C248.916,260.931 251.187,263.202 253.985,263.202L399.575,263.202C402.373,263.202 404.644,260.931 404.644,258.133L404.644,251.751Z" style="fill:rgb(51,65,85);"/>
    <path d="M450.676,463.637L437.92,463.636L431.851,414.433L450.679,414.434L450.676,463.637Z" style="fill:rgb(93,61,24);fill-rule:nonzero;"/>
    <g transform="matrix(1,0,0,1,-274.943,-211.194)">
        <path d="M725.279,670.665L711.659,665.125L711.269,664.965L703.749,670.665C694.967,670.666 687.741,677.892 687.739,686.675L687.739,687.195L728.869,687.195L728.869,670.665L725.279,670.665Z" style="fill-rule:nonzero;"/>
    </g>
    <path d="M558.496,452.952L546.314,456.737L525.916,411.551L543.896,405.965L558.496,452.952Z" style="fill:rgb(93,61,24);fill-rule:nonzero;"/>
    <g transform="matrix(1,0,0,1,-274.943,-211.194)">
        <path d="M831.877,660.268L817.227,659.02L816.807,658.983L811.317,666.658C802.931,669.266 798.175,678.311 800.78,686.698L800.934,687.195L840.211,674.988L835.306,659.203L831.877,660.268Z" style="fill-rule:nonzero;"/>
    </g>
    <g transform="matrix(1,0,0,1,-274.943,-211.194)">
        <path d="M782.399,422.78L787.588,437.536L787.588,445.512L786.865,454.283L794.895,483.537L801.194,548.045L832.895,643.537L808.588,650.537L746.528,494.513L726.926,652.326L704.697,651.733C704.697,651.733 700.895,642.537 701.895,637.537C702.895,632.537 702.895,638.537 702.895,632.537C702.895,626.537 698.56,629.143 701.727,624.34C704.895,619.537 704.5,615.332 704.697,612.434C704.895,609.537 702.895,492.537 702.895,488.537C702.895,484.537 702.202,485.413 702.548,481.475C702.895,477.537 707.29,479.156 706.092,472.346C704.895,465.537 704.5,466.727 704.697,461.632C704.895,456.537 707.651,426.662 707.651,426.662L782.399,422.78Z" style="fill:rgb(51,65,85);fill-rule:nonzero;"/>
    </g>
    <g transform="matrix(1,0,0,1,-274.943,-211.194)">
        <path d="M699.206,427.58L743.768,384.605L756.119,349.633L737.901,341.711C728.543,350.675 718.427,378.595 718.427,378.595L687.762,417.608C687.523,417.69 687.285,417.777 687.05,417.881C683.874,419.282 681.815,422.44 681.815,425.911C681.815,430.725 685.776,434.686 690.59,434.686C694.777,434.686 698.409,431.69 699.206,427.58Z" style="fill:rgb(93,61,24);fill-rule:nonzero;"/>
    </g>
    <g transform="matrix(1,0,0,1,-274.943,-211.194)">
        <path d="M732.774,345.616L755.883,352.952L755.97,352.938C764.571,351.497 771.708,337.449 776.18,325.919C779.217,318.071 775.611,309.098 767.987,305.535C762.419,302.978 755.856,303.806 751.097,307.666L739.231,317.362L732.774,345.616Z" style="fill:rgb(108,99,255);fill-rule:nonzero;"/>
    </g>
    <g transform="matrix(1,0,0,1,-274.943,-211.194)">
        <path d="M786.325,441.736L786.46,441.556C793.67,431.994 783.809,408.314 782.318,404.88L789.022,402.894L787.854,390.129L787.291,384.438L792.504,379.488L792.521,379.361L796.106,353.85L800.796,336.966C804.391,323.986 800.692,310.03 791.14,300.535L781.552,291.015L770.064,273.034L750.803,272.537L743.877,284.84C730.639,287.542 721.135,299.433 721.417,312.942L722.069,345.696L715.158,386.279L714.964,393.651L708.181,400.809L709.435,408.045L704.361,410.067L701.878,420.35C700.93,421.536 694.668,429.45 694.611,431.657C694.603,431.988 694.839,432.315 695.355,432.683C699.407,435.583 722.06,441.866 732.255,438.089C743.114,434.068 785.675,441.619 786.104,441.696L786.325,441.736Z" style="fill:rgb(110,138,172);fill-rule:nonzero;"/>
    </g>
    <g transform="matrix(1,0,0,1,-274.943,-211.194)">
        <path d="M739.111,337.901L729.272,318.286C714.991,319.262 686.648,335.774 686.648,335.774L633.022,347.144C631.912,346.717 630.734,346.498 629.546,346.498C624.231,346.498 619.857,350.872 619.857,356.187C619.857,361.501 624.231,365.875 629.546,365.875C631.774,365.875 633.935,365.106 635.663,363.699L703.879,358.809L739.111,337.901Z" style="fill:rgb(93,61,24);fill-rule:nonzero;"/>
    </g>
    <g transform="matrix(1,0,0,1,-274.943,-211.194)">
        <path d="M735.142,341.122L760.837,322.027L765.364,305.716C767.149,299.188 765.067,292.183 760.005,287.691C753.012,281.568 742.336,281.912 735.751,288.473C726.082,298.125 715.053,311.589 717.422,320.926L717.446,321.021L735.142,341.122Z" style="fill:rgb(110,138,172);fill-rule:nonzero;"/>
    </g>
    <circle cx="486.125" cy="34.035" r="22.849" style="fill:rgb(93,61,24);"/>
    <g transform="matrix(1,0,0,1,-274.943,-211.194)">
        <path d="M776.104,269.125C772.283,267.33 767.819,268.421 763.6,268.587C759.381,268.753 754.269,267.163 753.374,263.036C752.712,259.985 754.701,256.641 753.448,253.782C752.08,250.664 747.977,250.22 744.686,249.347C736.244,246.908 730.318,239.226 730.102,230.441C729.873,232.144 732.788,232.704 733.746,231.276C734.703,229.849 734.044,227.873 732.988,226.517C731.932,225.16 730.507,224.077 729.711,222.553C728.915,221.03 729.07,218.767 730.624,218.034C732.235,221.286 735.165,223.696 738.666,224.649C737.959,222.501 738.959,220.086 740.568,218.497C742.278,217.008 744.248,215.848 746.379,215.075C751.646,212.792 757.796,210.52 762.896,213.154C765.562,214.557 767.444,217.105 768.002,220.065C777.437,220.863 787.125,231.083 786.588,240.537C786.01,250.713 785.588,251.537 777.116,268.662" style="fill-rule:nonzero;"/>
    </g>
    <g transform="matrix(1,0,0,1,-274.943,-211.194)">
        <path d="M890.563,687.781L857.376,687.781L857.234,687.522C856.81,686.753 856.4,685.937 856.017,685.099C852.599,677.781 851.154,669.411 849.879,662.026L848.919,656.46C848.886,656.267 848.869,656.071 848.869,655.875C848.869,653.99 850.42,652.439 852.306,652.439C853.033,652.439 853.741,652.669 854.329,653.097C859.372,656.767 864.418,660.434 869.465,664.096C871.376,665.487 873.559,667.096 875.649,668.835C875.851,667.856 876.062,666.874 876.273,665.905C876.615,664.33 878.022,663.196 879.634,663.196C880.821,663.196 881.927,663.811 882.554,664.819L886.436,671.057C889.268,675.613 891.768,680.102 891.259,684.944C891.261,685.003 891.257,685.062 891.246,685.12C891.144,685.915 890.955,686.697 890.682,687.451L890.563,687.781Z" style="fill:rgb(203,213,225);fill-rule:nonzero;"/>
    </g>
    <g transform="matrix(1,0,0,1,-274.943,-211.194)">
        <path d="M923.872,688.499L608.515,688.806C607.864,688.803 607.33,688.266 607.33,687.615C607.33,686.964 607.864,686.428 608.515,686.425L923.872,686.117C924.523,686.121 925.057,686.657 925.057,687.308C925.057,687.959 924.523,688.495 923.872,688.499Z" style="fill:rgb(203,213,225);fill-rule:nonzero;"/>
    </g>
</svg>
